<mxfile host="app.diagrams.net" modified="2022-05-10T18:40:52.816Z" agent="5.0 (Macintosh; Intel Mac OS X 10_15_7) AppleWebKit/605.1.15 (KHTML, like Gecko) Version/15.4 Safari/605.1.15" etag="9g9iRoSdUF1TToHxoc4T" version="18.0.2" type="github">
  <diagram id="kgpKYQtTHZ0yAKxKKP6v" name="Page-1">
    <mxGraphModel dx="1796" dy="645" grid="1" gridSize="10" guides="1" tooltips="1" connect="1" arrows="1" fold="1" page="1" pageScale="1" pageWidth="850" pageHeight="1100" math="0" shadow="0">
      <root>
        <mxCell id="0" />
        <mxCell id="1" parent="0" />
        <mxCell id="YGUxFn36kJTQTusClIWJ-41" style="edgeStyle=orthogonalEdgeStyle;rounded=0;orthogonalLoop=1;jettySize=auto;html=1;" edge="1" parent="1" source="YGUxFn36kJTQTusClIWJ-39" target="YGUxFn36kJTQTusClIWJ-40">
          <mxGeometry relative="1" as="geometry" />
        </mxCell>
        <mxCell id="YGUxFn36kJTQTusClIWJ-43" style="edgeStyle=orthogonalEdgeStyle;rounded=0;orthogonalLoop=1;jettySize=auto;html=1;entryX=0;entryY=0.5;entryDx=0;entryDy=0;" edge="1" parent="1" source="YGUxFn36kJTQTusClIWJ-39" target="YGUxFn36kJTQTusClIWJ-42">
          <mxGeometry relative="1" as="geometry" />
        </mxCell>
        <mxCell id="YGUxFn36kJTQTusClIWJ-46" style="edgeStyle=orthogonalEdgeStyle;rounded=0;orthogonalLoop=1;jettySize=auto;html=1;exitX=1;exitY=0.5;exitDx=0;exitDy=0;entryX=0;entryY=0.5;entryDx=0;entryDy=0;" edge="1" parent="1" source="YGUxFn36kJTQTusClIWJ-39" target="YGUxFn36kJTQTusClIWJ-44">
          <mxGeometry relative="1" as="geometry" />
        </mxCell>
        <mxCell id="YGUxFn36kJTQTusClIWJ-59" value="" style="edgeStyle=orthogonalEdgeStyle;rounded=0;orthogonalLoop=1;jettySize=auto;html=1;" edge="1" parent="1" source="YGUxFn36kJTQTusClIWJ-39" target="YGUxFn36kJTQTusClIWJ-58">
          <mxGeometry relative="1" as="geometry" />
        </mxCell>
        <mxCell id="YGUxFn36kJTQTusClIWJ-39" value="Create Group of cameras" style="rounded=0;whiteSpace=wrap;html=1;" vertex="1" parent="1">
          <mxGeometry x="90" y="310" width="120" height="60" as="geometry" />
        </mxCell>
        <mxCell id="YGUxFn36kJTQTusClIWJ-50" value="" style="edgeStyle=orthogonalEdgeStyle;rounded=0;orthogonalLoop=1;jettySize=auto;html=1;" edge="1" parent="1" source="YGUxFn36kJTQTusClIWJ-40" target="YGUxFn36kJTQTusClIWJ-49">
          <mxGeometry relative="1" as="geometry" />
        </mxCell>
        <mxCell id="YGUxFn36kJTQTusClIWJ-40" value="Update Cameras" style="rounded=0;whiteSpace=wrap;html=1;" vertex="1" parent="1">
          <mxGeometry x="270" y="310" width="120" height="60" as="geometry" />
        </mxCell>
        <mxCell id="YGUxFn36kJTQTusClIWJ-52" value="" style="edgeStyle=orthogonalEdgeStyle;rounded=0;orthogonalLoop=1;jettySize=auto;html=1;" edge="1" parent="1" source="YGUxFn36kJTQTusClIWJ-42" target="YGUxFn36kJTQTusClIWJ-51">
          <mxGeometry relative="1" as="geometry" />
        </mxCell>
        <mxCell id="YGUxFn36kJTQTusClIWJ-42" value="Add Cameras" style="rounded=0;whiteSpace=wrap;html=1;" vertex="1" parent="1">
          <mxGeometry x="270" y="400" width="120" height="60" as="geometry" />
        </mxCell>
        <mxCell id="YGUxFn36kJTQTusClIWJ-47" style="edgeStyle=orthogonalEdgeStyle;rounded=0;orthogonalLoop=1;jettySize=auto;html=1;" edge="1" parent="1" source="YGUxFn36kJTQTusClIWJ-44" target="YGUxFn36kJTQTusClIWJ-48">
          <mxGeometry relative="1" as="geometry">
            <mxPoint x="440" y="250" as="targetPoint" />
          </mxGeometry>
        </mxCell>
        <mxCell id="YGUxFn36kJTQTusClIWJ-44" value="Delete Cameras" style="rounded=0;whiteSpace=wrap;html=1;" vertex="1" parent="1">
          <mxGeometry x="270" y="220" width="120" height="60" as="geometry" />
        </mxCell>
        <mxCell id="YGUxFn36kJTQTusClIWJ-48" value="Confirm&amp;nbsp;" style="rounded=0;whiteSpace=wrap;html=1;" vertex="1" parent="1">
          <mxGeometry x="430" y="220" width="120" height="60" as="geometry" />
        </mxCell>
        <mxCell id="YGUxFn36kJTQTusClIWJ-55" style="edgeStyle=orthogonalEdgeStyle;rounded=0;orthogonalLoop=1;jettySize=auto;html=1;entryX=0;entryY=0.5;entryDx=0;entryDy=0;" edge="1" parent="1" source="YGUxFn36kJTQTusClIWJ-49" target="YGUxFn36kJTQTusClIWJ-53">
          <mxGeometry relative="1" as="geometry" />
        </mxCell>
        <mxCell id="YGUxFn36kJTQTusClIWJ-49" value="Confirm&amp;nbsp;" style="whiteSpace=wrap;html=1;rounded=0;" vertex="1" parent="1">
          <mxGeometry x="430" y="310" width="120" height="60" as="geometry" />
        </mxCell>
        <mxCell id="YGUxFn36kJTQTusClIWJ-54" value="" style="edgeStyle=orthogonalEdgeStyle;rounded=0;orthogonalLoop=1;jettySize=auto;html=1;" edge="1" parent="1" source="YGUxFn36kJTQTusClIWJ-51" target="YGUxFn36kJTQTusClIWJ-53">
          <mxGeometry relative="1" as="geometry" />
        </mxCell>
        <mxCell id="YGUxFn36kJTQTusClIWJ-51" value="Confirm&amp;nbsp;" style="whiteSpace=wrap;html=1;rounded=0;" vertex="1" parent="1">
          <mxGeometry x="430" y="400" width="120" height="60" as="geometry" />
        </mxCell>
        <mxCell id="YGUxFn36kJTQTusClIWJ-57" style="edgeStyle=orthogonalEdgeStyle;rounded=0;orthogonalLoop=1;jettySize=auto;html=1;entryX=0;entryY=0.5;entryDx=0;entryDy=0;" edge="1" parent="1" source="YGUxFn36kJTQTusClIWJ-53" target="YGUxFn36kJTQTusClIWJ-40">
          <mxGeometry relative="1" as="geometry" />
        </mxCell>
        <mxCell id="YGUxFn36kJTQTusClIWJ-67" style="edgeStyle=orthogonalEdgeStyle;rounded=0;orthogonalLoop=1;jettySize=auto;html=1;entryX=0;entryY=0.75;entryDx=0;entryDy=0;" edge="1" parent="1" source="YGUxFn36kJTQTusClIWJ-53" target="YGUxFn36kJTQTusClIWJ-44">
          <mxGeometry relative="1" as="geometry" />
        </mxCell>
        <mxCell id="YGUxFn36kJTQTusClIWJ-70" style="edgeStyle=orthogonalEdgeStyle;rounded=0;orthogonalLoop=1;jettySize=auto;html=1;entryX=0;entryY=0.617;entryDx=0;entryDy=0;entryPerimeter=0;" edge="1" parent="1" source="YGUxFn36kJTQTusClIWJ-53" target="YGUxFn36kJTQTusClIWJ-58">
          <mxGeometry relative="1" as="geometry" />
        </mxCell>
        <mxCell id="YGUxFn36kJTQTusClIWJ-53" value="Details (camera information)" style="whiteSpace=wrap;html=1;rounded=0;" vertex="1" parent="1">
          <mxGeometry x="650" y="130" width="120" height="60" as="geometry" />
        </mxCell>
        <mxCell id="YGUxFn36kJTQTusClIWJ-61" style="edgeStyle=orthogonalEdgeStyle;rounded=0;orthogonalLoop=1;jettySize=auto;html=1;exitX=0.5;exitY=1;exitDx=0;exitDy=0;" edge="1" parent="1" source="YGUxFn36kJTQTusClIWJ-58" target="YGUxFn36kJTQTusClIWJ-60">
          <mxGeometry relative="1" as="geometry" />
        </mxCell>
        <mxCell id="YGUxFn36kJTQTusClIWJ-64" style="edgeStyle=orthogonalEdgeStyle;rounded=0;orthogonalLoop=1;jettySize=auto;html=1;" edge="1" parent="1" source="YGUxFn36kJTQTusClIWJ-58" target="YGUxFn36kJTQTusClIWJ-63">
          <mxGeometry relative="1" as="geometry" />
        </mxCell>
        <mxCell id="YGUxFn36kJTQTusClIWJ-71" style="edgeStyle=orthogonalEdgeStyle;rounded=0;orthogonalLoop=1;jettySize=auto;html=1;" edge="1" parent="1" source="YGUxFn36kJTQTusClIWJ-58" target="YGUxFn36kJTQTusClIWJ-72">
          <mxGeometry relative="1" as="geometry">
            <mxPoint x="260" y="570" as="targetPoint" />
            <Array as="points">
              <mxPoint x="240" y="440" />
              <mxPoint x="240" y="590" />
            </Array>
          </mxGeometry>
        </mxCell>
        <mxCell id="YGUxFn36kJTQTusClIWJ-58" value="Overview&amp;nbsp;" style="rounded=0;whiteSpace=wrap;html=1;" vertex="1" parent="1">
          <mxGeometry x="90" y="410" width="120" height="60" as="geometry" />
        </mxCell>
        <mxCell id="YGUxFn36kJTQTusClIWJ-74" value="" style="edgeStyle=orthogonalEdgeStyle;rounded=0;orthogonalLoop=1;jettySize=auto;html=1;" edge="1" parent="1" source="YGUxFn36kJTQTusClIWJ-60" target="YGUxFn36kJTQTusClIWJ-73">
          <mxGeometry relative="1" as="geometry" />
        </mxCell>
        <mxCell id="YGUxFn36kJTQTusClIWJ-75" style="edgeStyle=orthogonalEdgeStyle;rounded=0;orthogonalLoop=1;jettySize=auto;html=1;" edge="1" parent="1" source="YGUxFn36kJTQTusClIWJ-60">
          <mxGeometry relative="1" as="geometry">
            <mxPoint x="-80" y="700" as="targetPoint" />
          </mxGeometry>
        </mxCell>
        <mxCell id="YGUxFn36kJTQTusClIWJ-60" value="Data about individuals&amp;nbsp;" style="rounded=0;whiteSpace=wrap;html=1;" vertex="1" parent="1">
          <mxGeometry x="-40" y="590" width="120" height="60" as="geometry" />
        </mxCell>
        <mxCell id="YGUxFn36kJTQTusClIWJ-63" value="Team" style="rounded=0;whiteSpace=wrap;html=1;" vertex="1" parent="1">
          <mxGeometry x="110" y="590" width="120" height="60" as="geometry" />
        </mxCell>
        <mxCell id="YGUxFn36kJTQTusClIWJ-72" value="Add payment" style="rounded=0;whiteSpace=wrap;html=1;" vertex="1" parent="1">
          <mxGeometry x="250" y="560" width="120" height="60" as="geometry" />
        </mxCell>
        <mxCell id="YGUxFn36kJTQTusClIWJ-73" value="Detailed statistics for all individuals&amp;nbsp;" style="whiteSpace=wrap;html=1;rounded=0;" vertex="1" parent="1">
          <mxGeometry x="60" y="700" width="120" height="60" as="geometry" />
        </mxCell>
        <mxCell id="YGUxFn36kJTQTusClIWJ-77" value="&lt;span style=&quot;&quot;&gt;Detailed statistics for each individuals&amp;nbsp;&lt;/span&gt;" style="rounded=0;whiteSpace=wrap;html=1;" vertex="1" parent="1">
          <mxGeometry x="-140" y="690" width="120" height="60" as="geometry" />
        </mxCell>
      </root>
    </mxGraphModel>
  </diagram>
</mxfile>
